<svg xmlns="http://www.w3.org/2000/svg" width="32.498" height="31.248" viewBox="0 0 32.498 31.248">
  <path id="Trazado_66" data-name="Trazado 66" d="M704.316,345.606c-5.224,11.071-6.928,11.071-7.94,11.071h-10a6.6,6.6,0,0,1-6.835-5.248c-.019-.1-2-9.813-2.508-12.53-.245-1.33-.88-2.222-3.156-2.222a1.873,1.873,0,1,1,0-3.747c3.778,0,6.207,1.873,6.842,5.279.5,2.686,2.478,12.371,2.5,12.468a2.912,2.912,0,0,0,3.161,2.253h9.509c1.02-1.1,3.345-5.328,5.048-8.923a1.873,1.873,0,1,1,3.387,1.6Zm-19.2,12.322a3.125,3.125,0,1,0,3.125,3.125,3.128,3.128,0,0,0-3.125-3.125Zm11.255,0a3.125,3.125,0,1,0,3.125,3.125,3.123,3.123,0,0,0-3.125-3.125Z" transform="translate(-672 -332.93)" fill="#fff"/>
</svg>
